<svg xmlns="http://www.w3.org/2000/svg" width="340" height="200" viewBox="0 0 340 200"><style>* {
          font-family: 'Segoe UI', Ubuntu, "Helvetica Neue", Sans-Serif
        }</style><rect x="1" y="1" rx="5" ry="5" height="99%" width="99.41176470588235%" stroke="#000000" stroke-width="1" fill="#151515" stroke-opacity="0"></rect><text x="30" y="40" style="font-size: 22px; fill: #fff;">Top Languages by Commit</text><g transform="translate(0,40)"><g transform="translate(40,0)"><rect y="18" width="14" height="14" fill="#3178c6" stroke="#151515" style="stroke-width: 1px;"></rect><rect y="43.2" width="14" height="14" fill="#e34c26" stroke="#151515" style="stroke-width: 1px;"></rect><rect y="68.4" width="14" height="14" fill="#41b883" stroke="#151515" style="stroke-width: 1px;"></rect><rect y="93.60000000000002" width="14" height="14" fill="#4F5D95" stroke="#151515" style="stroke-width: 1px;"></rect><rect y="118.80000000000001" width="14" height="14" fill="#b07219" stroke="#151515" style="stroke-width: 1px;"></rect><text x="16.8" y="30" style="fill: #9f9f9f; font-size: 14px;">TypeScript</text><text x="16.8" y="55.2" style="fill: #9f9f9f; font-size: 14px;">HTML</text><text x="16.8" y="80.4" style="fill: #9f9f9f; font-size: 14px;">Vue</text><text x="16.8" y="105.60000000000002" style="fill: #9f9f9f; font-size: 14px;">PHP</text><text x="16.8" y="130.8" style="fill: #9f9f9f; font-size: 14px;">Java</text></g><g transform="translate( 230, 80 )"><g class="arc"><path d="M3.67394039744206e-15,-60A60,60,0,1,1,-32.990930379122084,-50.115850912859095L-19.244709387821214,-29.234246365834473A35,35,0,1,0,2.1431318985078682e-15,-35Z" style="fill: #3178c6; stroke-width: 2px;" stroke="#151515"></path></g><g class="arc"><path d="M-32.990930379122084,-50.115850912859095A60,60,0,0,1,-21.276293222552106,-56.1009745611249L-12.411171046488727,-32.72556849398953A35,35,0,0,0,-19.244709387821214,-29.234246365834473Z" style="fill: #e34c26; stroke-width: 2px;" stroke="#151515"></path></g><g class="arc"><path d="M-21.276293222552106,-56.1009745611249A60,60,0,0,1,-11.139277349078082,-58.95690375299839L-6.497911786962214,-34.39152718924906A35,35,0,0,0,-12.411171046488727,-32.72556849398953Z" style="fill: #41b883; stroke-width: 2px;" stroke="#151515"></path></g><g class="arc"><path d="M-11.139277349078082,-58.95690375299839A60,60,0,0,1,-3.9515900189502133,-59.86973305704756L-2.305094177720958,-34.92401094994441A35,35,0,0,0,-6.497911786962214,-34.39152718924906Z" style="fill: #4F5D95; stroke-width: 2px;" stroke="#151515"></path></g><g class="arc"><path d="M-3.9515900189502133,-59.86973305704756A60,60,0,0,1,4.226888398968133e-14,-60L2.4656848993980778e-14,-35A35,35,0,0,0,-2.305094177720958,-34.92401094994441Z" style="fill: #b07219; stroke-width: 2px;" stroke="#151515"></path></g></g></g></svg>