<svg xmlns="http://www.w3.org/2000/svg" width="340" height="200" viewBox="0 0 340 200"><style>* {
          font-family: 'Segoe UI', Ubuntu, "Helvetica Neue", Sans-Serif
        }</style><rect x="1" y="1" rx="5" ry="5" height="99%" width="99.41176470588235%" stroke="#000000" stroke-width="1" fill="#151515" stroke-opacity="0"></rect><text x="30" y="40" style="font-size: 22px; fill: #fff;">Top Languages by Commit</text><g transform="translate(0,40)"><g transform="translate(40,0)"><rect y="18" width="14" height="14" fill="#3178c6" stroke="#151515" style="stroke-width: 1px;"></rect><rect y="43.2" width="14" height="14" fill="#41b883" stroke="#151515" style="stroke-width: 1px;"></rect><rect y="68.4" width="14" height="14" fill="#e34c26" stroke="#151515" style="stroke-width: 1px;"></rect><rect y="93.60000000000002" width="14" height="14" fill="#4F5D95" stroke="#151515" style="stroke-width: 1px;"></rect><rect y="118.80000000000001" width="14" height="14" fill="#b07219" stroke="#151515" style="stroke-width: 1px;"></rect><text x="16.8" y="30" style="fill: #9f9f9f; font-size: 14px;">TypeScript</text><text x="16.8" y="55.2" style="fill: #9f9f9f; font-size: 14px;">Vue</text><text x="16.8" y="80.4" style="fill: #9f9f9f; font-size: 14px;">HTML</text><text x="16.8" y="105.60000000000002" style="fill: #9f9f9f; font-size: 14px;">PHP</text><text x="16.8" y="130.8" style="fill: #9f9f9f; font-size: 14px;">Java</text></g><g transform="translate( 230, 80 )"><g class="arc"><path d="M3.67394039744206e-15,-60A60,60,0,1,1,-43.51680077945878,-41.30723967927288L-25.38480045468429,-24.09588981290918A35,35,0,1,0,2.1431318985078682e-15,-35Z" style="fill: #3178c6; stroke-width: 2px;" stroke="#151515"></path></g><g class="arc"><path d="M-43.51680077945878,-41.30723967927288A60,60,0,0,1,-24.283931084672886,-54.86611605604007L-14.165626466059184,-32.00523436602337A35,35,0,0,0,-25.38480045468429,-24.09588981290918Z" style="fill: #41b883; stroke-width: 2px;" stroke="#151515"></path></g><g class="arc"><path d="M-24.283931084672886,-54.86611605604007A60,60,0,0,1,-11.765908435997142,-58.83505246598945L-6.863446587664999,-34.32044727182718A35,35,0,0,0,-14.165626466059184,-32.00523436602337Z" style="fill: #e34c26; stroke-width: 2px;" stroke="#151515"></path></g><g class="arc"><path d="M-11.765908435997142,-58.83505246598945A60,60,0,0,1,-4.600955064219465,-59.82333334491679L-2.6838904541280217,-34.89694445120146A35,35,0,0,0,-6.863446587664999,-34.32044727182718Z" style="fill: #4F5D95; stroke-width: 2px;" stroke="#151515"></path></g><g class="arc"><path d="M-4.600955064219465,-59.82333334491679A60,60,0,0,1,-6.431252637433369e-14,-60L-3.7515640385027985e-14,-35A35,35,0,0,0,-2.6838904541280217,-34.89694445120146Z" style="fill: #b07219; stroke-width: 2px;" stroke="#151515"></path></g></g></g></svg>