<svg xmlns="http://www.w3.org/2000/svg" width="340" height="200" viewBox="0 0 340 200"><style>* {
          font-family: 'Segoe UI', Ubuntu, "Helvetica Neue", Sans-Serif
        }</style><rect x="1" y="1" rx="5" ry="5" height="99%" width="99.41176470588235%" stroke="#000000" stroke-width="1" fill="#151515" stroke-opacity="0"></rect><text x="30" y="40" style="font-size: 22px; fill: #fff;">Top Languages by Commit</text><g transform="translate(0,40)"><g transform="translate(40,0)"><rect y="18" width="14" height="14" fill="#3178c6" stroke="#151515" style="stroke-width: 1px;"></rect><rect y="43.2" width="14" height="14" fill="#41b883" stroke="#151515" style="stroke-width: 1px;"></rect><rect y="68.4" width="14" height="14" fill="#e34c26" stroke="#151515" style="stroke-width: 1px;"></rect><rect y="93.60000000000002" width="14" height="14" fill="#4F5D95" stroke="#151515" style="stroke-width: 1px;"></rect><rect y="118.80000000000001" width="14" height="14" fill="#b07219" stroke="#151515" style="stroke-width: 1px;"></rect><text x="16.8" y="30" style="fill: #9f9f9f; font-size: 14px;">TypeScript</text><text x="16.8" y="55.2" style="fill: #9f9f9f; font-size: 14px;">Vue</text><text x="16.8" y="80.4" style="fill: #9f9f9f; font-size: 14px;">HTML</text><text x="16.8" y="105.60000000000002" style="fill: #9f9f9f; font-size: 14px;">PHP</text><text x="16.8" y="130.8" style="fill: #9f9f9f; font-size: 14px;">Java</text></g><g transform="translate( 230, 80 )"><g class="arc"><path d="M3.67394039744206e-15,-60A60,60,0,1,1,-44.89315864288209,-39.8070886534675L-26.187675875014552,-23.220801714522707A35,35,0,1,0,2.1431318985078682e-15,-35Z" style="fill: #3178c6; stroke-width: 2px;" stroke="#151515"></path></g><g class="arc"><path d="M-44.89315864288209,-39.8070886534675A60,60,0,0,1,-25.2362408246721,-54.43465944634129L-14.721140481058727,-31.753551343699087A35,35,0,0,0,-26.187675875014552,-23.220801714522707Z" style="fill: #41b883; stroke-width: 2px;" stroke="#151515"></path></g><g class="arc"><path d="M-25.2362408246721,-54.43465944634129A60,60,0,0,1,-12.251124901538574,-58.73593396420033L-7.146489525897502,-34.26262814578352A35,35,0,0,0,-14.721140481058727,-31.753551343699087Z" style="fill: #e34c26; stroke-width: 2px;" stroke="#151515"></path></g><g class="arc"><path d="M-12.251124901538574,-58.73593396420033A60,60,0,0,1,-4.792956592303624,-59.8082566800295L-2.7958913455104475,-34.888149730017204A35,35,0,0,0,-7.146489525897502,-34.26262814578352Z" style="fill: #4F5D95; stroke-width: 2px;" stroke="#151515"></path></g><g class="arc"><path d="M-4.792956592303624,-59.8082566800295A60,60,0,0,1,4.226888398968133e-14,-60L2.4656848993980778e-14,-35A35,35,0,0,0,-2.7958913455104475,-34.888149730017204Z" style="fill: #b07219; stroke-width: 2px;" stroke="#151515"></path></g></g></g></svg>