<svg xmlns="http://www.w3.org/2000/svg" fill="none" viewBox="0 0 24 24" id="Nginx--Streamline-Svg-Logos" height="24" width="24">
  <desc>
    Nginx Streamline Icon: https://streamlinehq.com
  </desc>
  <path fill="#009639" d="M1.823545 17.87945c0.1066825 0.18965 0.2607825 0.3319 0.45044 0.438575L11.40135 23.581075c0.379325 0.225225 0.841625 0.225225 1.209075 0l9.127375 -5.26305c0.3793 -0.21335 0.604525 -0.616375 0.604525 -1.054975V6.73695c0 -0.4386 -0.225225 -0.841625 -0.604525 -1.054975L12.610425 0.418915c-0.379325 -0.22522025 -0.8416 -0.22522025 -1.209075 0L2.273985 5.681975c-0.3911725 0.21335 -0.6163925 0.616375 -0.6163925 1.054975v10.53795c0 0.213375 0.047415 0.414875 0.1659525 0.60455Z" stroke-width="0.25"></path>
  <path fill="#ffffff" d="M9.078125 16.018425c0 0.651975 -0.521575 1.173525 -1.173525 1.173525 -0.65195 0 -1.173525 -0.52155 -1.173525 -1.173525V7.96975c0 -0.62825 0.557125 -1.13795 1.327625 -1.13795 0.557125 0 1.209075 0.225225 1.60025 0.711225l0.3556 0.426725L14.922 13.83735V7.993475c0 -0.651975 0.52155 -1.173525 1.173525 -1.173525 0.65195 0 1.1735 0.52155 1.1735 1.173525v8.048675c0 0.62825 -0.557125 1.13795 -1.3276 1.13795 -0.557125 0 -1.209075 -0.225225 -1.60025 -0.711225L9.078125 10.1864v5.832025Z" stroke-width="0.25"></path>
</svg>